0
SECTION
2
HEADER
9
$ACADVER
1
AC1009
9
$ANGDIR
70
0
9
$EXTMIN
10
0
20
0
9
$EXTMAX
10
24.0000
20
18.0000
0
ENDSEC
0
SECTION
2
ENTITIES
0
POLYLINE
8
Layer 1
66
1
0
VERTEX
8
0
10
4.5481
20
5.7689
0
VERTEX
8
0
10
2.9038
20
4.1247
0
VERTEX
8
0
10
7.0538
20
0.0011
0
VERTEX
8
0
10
12.0000
20
0.0000
0
VERTEX
8
0
10
12.0000
20
5.0882
0
VERTEX
8
0
10
11.2550
20
5.7950
0
VERTEX
8
0
10
9.6683
20
4.2334
0
VERTEX
8
0
10
9.8804
20
4.0605
0
VERTEX
8
0
10
9.8804
20
2.3391
0
VERTEX
8
0
10
7.9782
20
2.3391
0
VERTEX
8
0
10
4.5481
20
5.7689
0
SEQEND
8
0
0
POLYLINE
8
Layer 1
66
1
0
VERTEX
8
0
10
4.2523
20
9.2509
0
VERTEX
8
0
10
5.8717
20
7.6317
0
VERTEX
8
0
10
2.3252
20
4.0866
0
VERTEX
8
0
10
2.3252
20
2.1847
0
VERTEX
8
0
10
4.0468
20
2.1847
0
VERTEX
8
0
10
4.2066
20
2.3587
0
VERTEX
8
0
10
5.8195
20
0.7460
0
VERTEX
8
0
10
5.0745
20
0.0011
0
VERTEX
8
0
10
0.0000
20
0.0011
0
VERTEX
8
0
10
0.0000
20
5.0110
0
VERTEX
8
0
10
4.2523
20
9.2509
0
SEQEND
8
0
0
POLYLINE
8
Layer 1
66
1
0
VERTEX
8
0
10
5.0745
20
12.0000
0
VERTEX
8
0
10
0.0000
20
12.0000
0
VERTEX
8
0
10
0.0000
20
6.9901
0
VERTEX
8
0
10
0.7961
20
6.2322
0
VERTEX
8
0
10
2.4274
20
7.8894
0
VERTEX
8
0
10
2.1969
20
8.1200
0
VERTEX
8
0
10
2.1969
20
9.8164
0
VERTEX
8
0
10
4.1501
20
9.8164
0
VERTEX
8
0
10
7.6520
20
6.2778
0
VERTEX
8
0
10
9.2115
20
7.8372
0
VERTEX
8
0
10
5.0745
20
12.0000
0
SEQEND
8
0
0
POLYLINE
8
Layer 1
66
1
0
VERTEX
8
0
10
6.9766
20
12.0000
0
VERTEX
8
0
10
6.2186
20
11.2681
0
VERTEX
8
0
10
7.8630
20
9.6239
0
VERTEX
8
0
10
8.1066
20
9.8164
0
VERTEX
8
0
10
9.7520
20
9.8164
0
VERTEX
8
0
10
9.7520
20
7.9145
0
VERTEX
8
0
10
6.3676
20
4.5151
0
VERTEX
8
0
10
7.9271
20
2.9557
0
VERTEX
8
0
10
12.0000
20
6.9901
0
VERTEX
8
0
10
12.0000
20
12.0000
0
VERTEX
8
0
10
6.9766
20
12.0000
0
SEQEND
8
0
0
ENDSEC
0
EOF
