999
"DXF R12 Output" (www.mydxf.blogspot.com)
 0 
SECTION
 2 
HEADER
 9 
$ACADVER
 1 
AC1009
 9 
$EXTMIN
 10 
 0 
 20 
 0 
 9 
$EXTMAX
 10 
 8.5 
 20 
 11 
 0 
ENDSEC
 0 
SECTION
 2 
ENTITIES
0
LINE
8
Layer 1
10
3.200370
20
12.259700
11
5.249297
21
12.026867
0
LINE
8
Layer 1
10
5.249297
20
12.026867
11
6.032462
21
11.735826
0
LINE
8
Layer 1
10
6.032462
20
11.735826
11
6.654760
21
11.328368
0
LINE
8
Layer 1
10
6.654760
20
11.328368
11
7.128892
21
10.815078
0
LINE
8
Layer 1
10
7.128892
20
10.815078
11
7.467557
21
10.206537
0
LINE
8
Layer 1
10
7.467557
20
10.206537
11
7.670757
21
9.502748
0
LINE
8
Layer 1
10
7.670757
20
9.502748
11
7.738490
21
8.703708
0
LINE
8
Layer 1
10
7.738490
20
8.703708
11
7.624190
21
7.734276
0
LINE
8
Layer 1
10
7.624190
20
7.734276
11
7.281291
21
6.824108
0
LINE
8
Layer 1
10
7.281291
20
6.824108
11
6.684393
21
6.040944
0
LINE
8
Layer 1
10
6.684393
20
6.040944
11
5.774231
21
5.418648
0
LINE
8
Layer 1
10
5.774231
20
5.418648
11
4.533868
21
5.012249
0
LINE
8
Layer 1
10
4.533868
20
5.012249
11
2.912501
21
4.876783
0
LINE
8
Layer 1
10
2.912501
20
4.876783
11
1.523970
21
4.876770
0
LINE
8
Layer 1
10
1.523970
20
4.876770
11
1.523970
21
0.169310
0
LINE
8
Layer 1
10
1.523970
20
0.169310
11
-0.000027
21
0.169310
0
LINE
8
Layer 1
10
-0.000027
20
0.169310
11
-0.000027
21
12.259700
0
LINE
8
Layer 1
10
-0.000027
20
12.259700
11
3.200370
21
12.259700
0
LINE
8
Layer 1
10
3.064900
20
10.955800
11
1.523970
21
10.955800
0
LINE
8
Layer 1
10
1.523970
20
10.955800
11
1.523970
21
6.180630
0
LINE
8
Layer 1
10
1.523970
20
6.180630
11
2.743170
21
6.180630
0
LINE
8
Layer 1
10
2.743170
20
6.180630
11
4.250235
21
6.320330
0
LINE
8
Layer 1
10
4.250235
20
6.320330
11
5.317030
21
6.739429
0
LINE
8
Layer 1
10
5.317030
20
6.739429
11
5.952029
21
7.492961
0
LINE
8
Layer 1
10
5.952029
20
7.492961
11
6.163695
21
8.635959
0
LINE
8
Layer 1
10
6.163695
20
8.635959
11
5.977429
21
9.656191
0
LINE
8
Layer 1
10
5.977429
20
9.656191
11
5.418630
21
10.380089
0
LINE
8
Layer 1
10
5.418630
20
10.380089
11
4.457662
21
10.811872
0
LINE
8
Layer 1
10
4.457662
20
10.811872
11
3.064900
21
10.955800
0
LINE
8
Layer 1
10
3.064900
20
10.955800
11
3.064900
21
10.955800
0
LINE
8
Layer 1
10
17.001000
20
0.169310
11
10.244600
21
0.169310
0
LINE
8
Layer 1
10
10.244600
20
0.169310
11
10.244600
21
12.259700
0
LINE
8
Layer 1
10
10.244600
20
12.259700
11
17.001000
21
12.259700
0
LINE
8
Layer 1
10
17.001000
20
12.259700
11
17.001000
21
10.922000
0
LINE
8
Layer 1
10
17.001000
20
10.922000
11
11.768600
21
10.922000
0
LINE
8
Layer 1
10
11.768600
20
10.922000
11
11.768600
21
7.145830
0
LINE
8
Layer 1
10
11.768600
20
7.145830
11
16.696200
21
7.145830
0
LINE
8
Layer 1
10
16.696200
20
7.145830
11
16.696200
21
5.825030
0
LINE
8
Layer 1
10
16.696200
20
5.825030
11
11.768600
21
5.825030
0
LINE
8
Layer 1
10
11.768600
20
5.825030
11
11.768600
21
1.507040
0
LINE
8
Layer 1
10
11.768600
20
1.507040
11
17.001000
21
1.507040
0
LINE
8
Layer 1
10
17.001000
20
1.507040
11
17.001000
21
0.169310
0
LINE
8
Layer 1
10
28.177000
20
12.259700
11
23.859000
21
0.169310
0
LINE
8
Layer 1
10
23.859000
20
0.169310
11
22.335000
21
0.169310
0
LINE
8
Layer 1
10
22.335000
20
0.169310
11
18.017000
21
12.259700
0
LINE
8
Layer 1
10
18.017000
20
12.259700
11
19.608700
21
12.259700
0
LINE
8
Layer 1
10
19.608700
20
12.259700
11
22.334960
21
4.504250
0
LINE
8
Layer 1
10
22.334960
20
4.504250
11
22.792159
21
3.098790
0
LINE
8
Layer 1
10
22.792159
20
3.098790
11
23.096959
21
1.862660
0
LINE
8
Layer 1
10
23.096959
20
1.862660
11
23.401758
21
3.115720
0
LINE
8
Layer 1
10
23.401758
20
3.115720
11
23.858957
21
4.538120
0
LINE
8
Layer 1
10
23.858957
20
4.538120
11
26.568287
21
12.259710
0
LINE
8
Layer 1
10
26.568287
20
12.259710
11
28.177000
21
12.259700
0
LINE
8
Layer 1
10
36.575900
20
0.169310
11
29.819500
21
0.169310
0
LINE
8
Layer 1
10
29.819500
20
0.169310
11
29.819500
21
12.259700
0
LINE
8
Layer 1
10
29.819500
20
12.259700
11
36.575900
21
12.259700
0
LINE
8
Layer 1
10
36.575900
20
12.259700
11
36.575900
21
10.922000
0
LINE
8
Layer 1
10
36.575900
20
10.922000
11
31.343500
21
10.922000
0
LINE
8
Layer 1
10
31.343500
20
10.922000
11
31.343500
21
7.145830
0
LINE
8
Layer 1
10
31.343500
20
7.145830
11
36.271100
21
7.145830
0
LINE
8
Layer 1
10
36.271100
20
7.145830
11
36.271100
21
5.825030
0
LINE
8
Layer 1
10
36.271100
20
5.825030
11
31.343500
21
5.825030
0
LINE
8
Layer 1
10
31.343500
20
5.825030
11
31.343500
21
1.507040
0
LINE
8
Layer 1
10
31.343500
20
1.507040
11
36.575900
21
1.507040
0
LINE
8
Layer 1
10
36.575900
20
1.507040
11
36.575900
21
0.169310
0
LINE
8
Layer 1
10
48.073600
20
0.169310
11
46.278700
21
0.169310
0
LINE
8
Layer 1
10
46.278700
20
0.169310
11
41.994570
21
5.943570
0
LINE
8
Layer 1
10
41.994570
20
5.943570
11
40.758440
21
4.859840
0
LINE
8
Layer 1
10
40.758440
20
4.859840
11
40.758400
21
0.169310
0
LINE
8
Layer 1
10
40.758400
20
0.169310
11
39.234400
21
0.169310
0
LINE
8
Layer 1
10
39.234400
20
0.169310
11
39.234400
21
12.259700
0
LINE
8
Layer 1
10
39.234400
20
12.259700
11
40.758400
21
12.259700
0
LINE
8
Layer 1
10
40.758400
20
12.259700
11
40.758400
21
6.299160
0
LINE
8
Layer 1
10
40.758400
20
6.299160
11
41.791330
21
7.450620
0
LINE
8
Layer 1
10
41.791330
20
7.450620
11
42.841190
21
8.602080
0
LINE
8
Layer 1
10
42.841190
20
8.602080
11
46.109320
21
12.259670
0
LINE
8
Layer 1
10
46.109320
20
12.259670
11
47.887300
21
12.259700
0
LINE
8
Layer 1
10
47.887300
20
12.259700
11
43.095180
21
6.993440
0
LINE
8
Layer 1
10
43.095180
20
6.993440
11
48.073600
21
0.169310
0
LINE
8
Layer 1
10
59.926900
20
6.231430
11
59.766033
21
4.470365
0
LINE
8
Layer 1
10
59.766033
20
4.470365
11
59.283434
21
2.946370
0
LINE
8
Layer 1
10
59.283434
20
2.946370
11
58.504503
21
1.710240
0
LINE
8
Layer 1
10
58.504503
20
1.710240
11
57.420774
21
0.778910
0
LINE
8
Layer 1
10
57.420774
20
0.778910
11
56.036477
21
0.194711
0
LINE
8
Layer 1
10
56.036477
20
0.194711
11
54.355844
21
-0.000022
0
LINE
8
Layer 1
10
54.355844
20
-0.000022
11
52.632879
21
0.194711
0
LINE
8
Layer 1
10
52.632879
20
0.194711
11
51.223184
21
0.778910
0
LINE
8
Layer 1
10
51.223184
20
0.778910
11
50.143687
21
1.714476
0
LINE
8
Layer 1
10
50.143687
20
1.714476
11
49.377454
21
2.963310
0
LINE
8
Layer 1
10
49.377454
20
2.963310
11
48.920255
21
4.487305
0
LINE
8
Layer 1
10
48.920255
20
4.487305
11
48.767855
21
6.248370
0
LINE
8
Layer 1
10
48.767855
20
6.248370
11
48.920255
21
7.992498
0
LINE
8
Layer 1
10
48.920255
20
7.992498
11
49.377454
21
9.499560
0
LINE
8
Layer 1
10
49.377454
20
9.499560
11
50.143686
21
10.735690
0
LINE
8
Layer 1
10
50.143686
20
10.735690
11
51.223184
21
11.667020
0
LINE
8
Layer 1
10
51.223184
20
11.667020
11
52.637112
21
12.251219
0
LINE
8
Layer 1
10
52.637112
20
12.251219
11
54.372774
21
12.445952
0
LINE
8
Layer 1
10
54.372774
20
12.445952
11
56.040701
21
12.251219
0
LINE
8
Layer 1
10
56.040701
20
12.251219
11
57.420764
21
11.667020
0
LINE
8
Layer 1
10
57.420764
20
11.667020
11
58.504494
21
10.744156
0
LINE
8
Layer 1
10
58.504494
20
10.744156
11
59.283424
21
9.499560
0
LINE
8
Layer 1
10
59.283424
20
9.499560
11
59.766023
21
7.988263
0
LINE
8
Layer 1
10
59.766023
20
7.988263
11
59.926890
21
6.231430
0
LINE
8
Layer 1
10
59.926890
20
6.231430
11
59.926900
21
6.231430
0
LINE
8
Layer 1
10
50.376520
20
6.231430
11
50.617819
21
4.186732
0
LINE
8
Layer 1
10
50.617819
20
4.186732
11
50.919444
21
3.345361
0
LINE
8
Layer 1
10
50.919444
20
3.345361
11
51.341718
21
2.624640
0
LINE
8
Layer 1
10
51.341718
20
2.624640
11
51.892050
21
2.054201
0
LINE
8
Layer 1
10
51.892050
20
2.054201
11
52.577849
21
1.646745
0
LINE
8
Layer 1
10
52.577849
20
1.646745
11
53.399115
21
1.402271
0
LINE
8
Layer 1
10
53.399115
20
1.402271
11
54.355848
21
1.320780
0
LINE
8
Layer 1
10
54.355848
20
1.320780
11
55.318929
21
1.402271
0
LINE
8
Layer 1
10
55.318929
20
1.402271
11
56.142311
21
1.646745
0
LINE
8
Layer 1
10
56.142311
20
1.646745
11
56.825994
21
2.054201
0
LINE
8
Layer 1
10
56.825994
20
2.054201
11
57.369978
21
2.624640
0
LINE
8
Layer 1
10
57.369978
20
2.624640
11
57.784843
21
3.345364
0
LINE
8
Layer 1
10
57.784843
20
3.345364
11
58.081176
21
4.186737
0
LINE
8
Layer 1
10
58.081176
20
4.186737
11
58.318242
21
6.231430
0
LINE
8
Layer 1
10
58.318242
20
6.231430
11
58.081176
21
8.267658
0
LINE
8
Layer 1
10
58.081176
20
8.267658
11
57.784843
21
9.098449
0
LINE
8
Layer 1
10
57.784843
20
9.098449
11
57.369978
21
9.804360
0
LINE
8
Layer 1
10
57.369978
20
9.804360
11
56.827054
21
10.374799
0
LINE
8
Layer 1
10
56.827054
20
10.374799
11
56.146546
21
10.782255
0
LINE
8
Layer 1
10
56.146546
20
10.782255
11
55.328454
21
11.026729
0
LINE
8
Layer 1
10
55.328454
20
11.026729
11
54.372778
21
11.108220
0
LINE
8
Layer 1
10
54.372778
20
11.108220
11
53.414988
21
11.026729
0
LINE
8
Layer 1
10
53.414988
20
11.026729
11
52.590548
21
10.782255
0
LINE
8
Layer 1
10
52.590548
20
10.782255
11
51.899458
21
10.374799
0
LINE
8
Layer 1
10
51.899458
20
10.374799
11
51.341718
21
9.804360
0
LINE
8
Layer 1
10
51.341718
20
9.804360
11
50.919444
21
9.098453
0
LINE
8
Layer 1
10
50.919444
20
9.098453
11
50.617819
21
8.267663
0
LINE
8
Layer 1
10
50.617819
20
8.267663
11
50.376520
21
6.231430
0
LINE
8
Layer 1
10
50.376520
20
6.231430
11
50.376520
21
6.231430
 0 
ENDSEC
 0 
EOF