  0
SECTION
  2
HEADER
  9
$ACADVER
  1
AC1006
  9
$EXTMIN
 10
0.000000
 20
0.000000
 30
0.000000
  9
$EXTMAX
 10
551.000000
 20
190.000000
 30
0.000000
  0
ENDSEC
  0
SECTION
  2
ENTITIES
  0
POLYLINE
  8
0
 66
1
 70
1
  0
VERTEX
  8
0
 10
-0.000000
 20
95.020288
 42
0.000000
  0
VERTEX
  8
0
 10
0.000000
 20
0.000000
 42
0.000000
  0
VERTEX
  8
0
 10
13.000000
 20
0.000000
 42
0.000000
  0
VERTEX
  8
0
 10
26.000000
 20
0.000000
 42
0.000000
  0
VERTEX
  8
0
 10
26.036629
 20
84.750000
 42
0.000000
  0
VERTEX
  8
0
 10
26.073258
 20
169.500000
 42
0.000000
  0
VERTEX
  8
0
 10
47.557846
 20
112.500000
 42
0.000100
  0
VERTEX
  8
0
 10
56.046893
 20
89.991591
 42
0.000132
  0
VERTEX
  8
0
 10
63.779265
 20
69.518218
 42
0.000093
  0
VERTEX
  8
0
 10
70.271334
 20
52.352288
 42
0.001326
  0
VERTEX
  8
0
 10
72.609852
 20
46.221592
 42
0.000000
  0
VERTEX
  8
0
 10
76.177269
 20
36.943184
 42
0.000000
  0
VERTEX
  8
0
 10
89.330038
 20
37.221592
 42
0.000000
  0
VERTEX
  8
0
 10
102.482808
 20
37.500000
 42
0.000000
  0
VERTEX
  8
0
 10
127.062364
 20
102.737626
 42
-0.000532
  0
VERTEX
  8
0
 10
136.535160
 20
127.798929
 42
-0.000871
  0
VERTEX
  8
0
 10
144.621143
 20
149.011168
 42
-0.000074
  0
VERTEX
  8
0
 10
151.907204
 20
168.016963
 42
-0.105178
  0
VERTEX
  8
0
 10
152.320960
 20
168.654293
 42
-0.665126
  0
VERTEX
  8
0
 10
152.599790
 20
168.540176
 42
-0.000092
  0
VERTEX
  8
0
 10
152.800532
 20
144.263032
 42
-0.001269
  0
VERTEX
  8
0
 10
152.951256
 20
117.085993
 42
-0.000752
  0
VERTEX
  8
0
 10
153.000000
 20
84.666667
 42
0.000000
  0
VERTEX
  8
0
 10
153.000000
 20
0.000000
 42
0.000000
  0
VERTEX
  8
0
 10
165.500000
 20
0.000000
 42
0.000000
  0
VERTEX
  8
0
 10
178.000000
 20
0.000000
 42
0.000000
  0
VERTEX
  8
0
 10
178.000000
 20
95.000000
 42
0.000000
  0
VERTEX
  8
0
 10
178.000000
 20
190.000000
 42
0.000000
  0
VERTEX
  8
0
 10
157.737760
 20
190.000000
 42
0.000000
  0
VERTEX
  8
0
 10
137.475520
 20
190.000000
 42
0.000000
  0
VERTEX
  8
0
 10
113.501782
 20
126.535978
 42
-0.001232
  0
VERTEX
  8
0
 10
104.259420
 20
102.250438
 42
-0.002074
  0
VERTEX
  8
0
 10
96.369639
 20
81.924257
 42
-0.000192
  0
VERTEX
  8
0
 10
89.266988
 20
63.868954
 42
-0.547302
  0
VERTEX
  8
0
 10
88.844845
 20
63.785978
 42
-0.099729
  0
VERTEX
  8
0
 10
88.426164
 20
64.447093
 42
-0.000081
  0
VERTEX
  8
0
 10
81.458483
 20
82.649631
 42
-0.000889
  0
VERTEX
  8
0
 10
73.719225
 20
102.986029
 42
-0.000544
  0
VERTEX
  8
0
 10
64.659170
 20
127.000000
 42
0.000000
  0
VERTEX
  8
0
 10
41.156693
 20
189.500000
 42
0.000000
  0
VERTEX
  8
0
 10
20.578346
 20
189.770288
 42
0.000000
  0
VERTEX
  8
0
 10
-0.000000
 20
190.040577
 42
0.000000
  0
SEQEND
  0
POLYLINE
  8
0
 66
1
 70
1
  0
VERTEX
  8
0
 10
231.000000
 20
95.000000
 42
0.000000
  0
VERTEX
  8
0
 10
231.000000
 20
0.000000
 42
0.000000
  0
VERTEX
  8
0
 10
244.000000
 20
0.000000
 42
0.000000
  0
VERTEX
  8
0
 10
257.000000
 20
0.000000
 42
0.000000
  0
VERTEX
  8
0
 10
257.000000
 20
95.000000
 42
0.000000
  0
VERTEX
  8
0
 10
257.000000
 20
190.000000
 42
0.000000
  0
VERTEX
  8
0
 10
244.000000
 20
190.000000
 42
0.000000
  0
VERTEX
  8
0
 10
231.000000
 20
190.000000
 42
0.000000
  0
SEQEND
  0
POLYLINE
  8
0
 66
1
 70
1
  0
VERTEX
  8
0
 10
309.000000
 20
95.000000
 42
0.000000
  0
VERTEX
  8
0
 10
309.000000
 20
0.000000
 42
0.000000
  0
VERTEX
  8
0
 10
322.500000
 20
0.000000
 42
0.000000
  0
VERTEX
  8
0
 10
336.000000
 20
0.000000
 42
0.000000
  0
VERTEX
  8
0
 10
336.000000
 20
46.245968
 42
0.000000
  0
VERTEX
  8
0
 10
336.000000
 20
92.491935
 42
0.000000
  0
VERTEX
  8
0
 10
382.253990
 20
46.245968
 42
0.000000
  0
VERTEX
  8
0
 10
428.507979
 20
-0.000000
 42
0.000000
  0
VERTEX
  8
0
 10
446.000384
 20
0.000000
 42
0.000000
  0
VERTEX
  8
0
 10
463.492788
 20
0.000000
 42
0.000000
  0
VERTEX
  8
0
 10
411.746865
 20
51.753101
 42
0.000000
  0
VERTEX
  8
0
 10
360.000942
 20
103.506201
 42
0.000000
  0
VERTEX
  8
0
 10
400.544746
 20
141.503101
 42
-0.000166
  0
VERTEX
  8
0
 10
416.490868
 20
156.437584
 42
-0.000227
  0
VERTEX
  8
0
 10
430.854864
 20
169.869147
 42
-0.000146
  0
VERTEX
  8
0
 10
442.936643
 20
181.149765
 42
-0.002679
  0
VERTEX
  8
0
 10
446.794274
 20
184.711015
 42
0.000000
  0
VERTEX
  8
0
 10
452.500000
 20
189.922031
 42
0.000000
  0
VERTEX
  8
0
 10
435.500000
 20
189.950643
 42
0.000000
  0
VERTEX
  8
0
 10
418.500000
 20
189.979254
 42
0.000000
  0
VERTEX
  8
0
 10
377.500000
 20
151.452049
 42
0.000000
  0
VERTEX
  8
0
 10
336.500000
 20
112.924844
 42
0.000000
  0
VERTEX
  8
0
 10
336.238257
 20
151.462422
 42
0.000000
  0
VERTEX
  8
0
 10
335.976513
 20
190.000000
 42
0.000000
  0
VERTEX
  8
0
 10
322.488257
 20
190.000000
 42
0.000000
  0
VERTEX
  8
0
 10
309.000000
 20
190.000000
 42
0.000000
  0
SEQEND
  0
POLYLINE
  8
0
 66
1
 70
1
  0
VERTEX
  8
0
 10
484.000000
 20
95.000000
 42
0.000000
  0
VERTEX
  8
0
 10
484.000000
 20
0.000000
 42
0.000000
  0
VERTEX
  8
0
 10
497.500000
 20
0.000000
 42
0.000000
  0
VERTEX
  8
0
 10
511.000000
 20
0.000000
 42
0.000000
  0
VERTEX
  8
0
 10
511.000000
 20
95.000000
 42
0.000000
  0
VERTEX
  8
0
 10
511.000000
 20
190.000000
 42
0.000000
  0
VERTEX
  8
0
 10
497.500000
 20
190.000000
 42
0.000000
  0
VERTEX
  8
0
 10
484.000000
 20
190.000000
 42
0.000000
  0
SEQEND
  0
ENDSEC
  0
EOF
